# xmcd
#
# Track frame offsets:
#	182
#	10195
#	26620
#	45820
#	62845
#	76610
#	94495
#
# Disc length: 1389 seconds
#
# Revision: 1
# Processed by: cddbd v1.5.2PL0 Copyright (c) Steve Scherf et al.
# Submitted via: audiograbber 1.83.01
#
DISCID=45056b07
DTITLE=Kelly Tassone - Supporting Victims Of Crime
DYEAR=1994
DGENRE=Country
TTITLE0=Avoca Theme Song 1
TTITLE1=Little Boy Man
TTITLE2=New Love Of My Life
TTITLE3=In The Cards
TTITLE4=Song For Mum
TTITLE5=Why Don't We Do It Again
TTITLE6=Avoca Theme Song 2
EXTD=
EXTT0=
EXTT1=
EXTT2=
EXTT3=
EXTT4=
EXTT5=
EXTT6=
PLAYORDER=
